<?xml version="1.0" standalone="no"?>
<!DOCTYPE svg PUBLIC "-//W3C//DTD SVG 20010904//EN"
 "http://www.w3.org/TR/2001/REC-SVG-20010904/DTD/svg10.dtd">
<svg version="1.0" xmlns="http://www.w3.org/2000/svg"
 width="512.000000pt" height="512.000000pt" viewBox="0 0 512.000000 512.000000"
 preserveAspectRatio="xMidYMid meet">

<g transform="translate(0.000000,512.000000) scale(0.100000,-0.100000)"
fill="#000000" stroke="none">
<path d="M1910 5044 c-575 -73 -1020 -502 -1106 -1066 -19 -120 -14 -320 11
-433 8 -38 15 -75 15 -82 0 -6 -29 -25 -64 -41 -243 -114 -484 -362 -591 -608
-151 -349 -137 -741 36 -1064 109 -201 306 -405 478 -495 25 -13 53 -29 61
-34 12 -8 -51 -77 -327 -354 l-343 -343 0 -197 c0 -266 -19 -247 247 -247
l197 0 258 257 258 257 0 -103 c0 -100 1 -103 29 -132 25 -24 37 -29 80 -29
l51 0 0 -102 c1 -159 -1 -158 280 -158 l212 0 29 29 c28 29 29 32 29 130 l0
101 810 0 810 0 0 -101 c0 -98 1 -101 29 -130 l29 -29 212 0 c281 0 279 -1
280 158 l0 102 51 0 c43 0 55 5 80 29 l29 29 0 366 0 365 43 11 c210 54 389
155 548 307 147 142 250 304 314 495 99 296 83 608 -46 896 -39 87 -142 240
-214 320 -99 108 -284 241 -411 293 l-54 23 -1 105 c0 58 -6 131 -13 161 l-12
55 403 405 403 406 0 197 c0 266 19 247 -247 247 l-197 0 -371 -370 -370 -370
-78 39 c-115 58 -220 84 -362 89 -85 3 -142 -1 -194 -12 -41 -9 -75 -15 -76
-13 -45 79 -141 204 -215 278 -172 173 -376 285 -620 340 -83 19 -323 33 -400
23z m2970 -271 l0 -108 -2212 -2212 -2213 -2213 -107 0 -108 0 0 108 0 107
1040 1040 c572 572 1568 1568 2212 2213 l1171 1172 109 0 108 0 0 -107z
m-2591 67 c212 -52 353 -132 511 -290 90 -90 126 -134 165 -204 59 -105 95
-146 127 -146 13 0 52 10 88 21 100 32 264 37 365 11 44 -11 102 -30 129 -42
l50 -21 -544 -544 -545 -545 -772 0 -771 0 -26 -31 -26 -31 0 -767 0 -767 -69
-68 -68 -68 -79 40 c-532 268 -731 938 -432 1454 117 202 321 376 533 453 84
31 119 64 112 105 -2 14 -17 70 -32 125 -25 90 -28 117 -29 260 0 180 10 243
67 393 86 231 274 444 497 565 82 45 222 93 325 112 108 20 311 13 424 -15z
m1788 -1339 c-4 -100 -2 -133 8 -148 8 -11 51 -35 97 -53 331 -130 569 -395
654 -729 104 -402 -48 -825 -388 -1087 -92 -72 -301 -174 -353 -174 -13 0 -15
107 -15 854 l0 854 -26 31 -26 31 -244 0 c-134 0 -244 3 -244 7 0 8 531 543
539 543 2 0 1 -58 -2 -129z m-1747 -726 l-125 -125 -328 0 -328 0 -24 -25
c-29 -28 -33 -79 -10 -112 25 -35 77 -43 300 -43 l210 0 -120 -120 -120 -120
-282 0 -283 0 0 335 0 335 617 0 618 0 -125 -125z m1570 -210 l0 -335 -610 0
c-335 0 -610 1 -610 3 0 1 106 108 235 237 218 217 234 232 220 191 -45 -130
7 -270 127 -337 45 -25 64 -29 128 -29 64 0 83 4 128 29 94 53 141 132 141
241 0 109 -47 188 -141 241 -46 25 -63 29 -128 29 -53 0 -85 -6 -110 -19 -34
-18 -34 -17 15 33 l49 51 278 0 278 0 0 -335z m-449 66 c42 -42 41 -99 -2
-135 -41 -35 -83 -34 -120 3 -21 22 -29 39 -29 66 0 48 44 95 90 95 22 0 41
-9 61 -29z m-1861 -589 c0 -4 -83 -90 -185 -192 l-185 -185 0 193 0 192 185 0
c102 0 185 -3 185 -8z m2310 -332 l0 -340 -1042 0 -1043 0 125 125 125 125
322 0 c321 0 322 0 348 23 37 32 37 89 1 126 l-26 26 -232 3 -232 3 125 125
124 124 702 0 703 0 0 -340z m0 -860 l0 -340 -1340 0 -1340 0 0 132 0 133 207
207 208 208 1132 0 1133 0 0 -340z m-2330 -560 l0 -40 -95 0 -95 0 0 40 0 40
95 0 95 0 0 -40z m2170 0 l0 -40 -95 0 -95 0 0 40 0 40 95 0 95 0 0 -40z"/>
<path d="M3294 1964 c-60 -21 -119 -76 -149 -139 -24 -48 -27 -64 -23 -127 4
-84 24 -130 76 -183 105 -106 281 -107 384 -1 52 54 72 100 76 184 4 63 1 79
-23 127 -61 127 -208 186 -341 139z m155 -190 c25 -21 31 -34 31 -64 0 -58
-35 -95 -90 -95 -55 0 -90 37 -90 95 0 30 6 43 31 64 17 15 43 26 59 26 16 0
42 -11 59 -26z"/>
<path d="M3294 1104 c-143 -51 -216 -229 -150 -369 26 -57 87 -117 143 -141
49 -21 157 -21 206 0 142 62 209 238 141 374 -62 124 -208 183 -340 136z m160
-190 c47 -48 32 -124 -30 -150 -29 -12 -39 -12 -68 0 -40 17 -56 42 -56 89 0
78 98 117 154 61z"/>
<path d="M1554 930 c-57 -23 -71 -100 -28 -144 l27 -26 574 0 c392 0 581 3
595 11 31 17 50 71 37 108 -22 62 -12 61 -626 60 -307 0 -568 -4 -579 -9z"/>
</g>
</svg>
